<svg width="12" height="16" viewBox="0 0 12 16" fill="none" xmlns="http://www.w3.org/2000/svg">
<path fill-rule="evenodd" clip-rule="evenodd" d="M3 0C1.34314 0 0 1.34315 0 3V12.9981C0 14.6549 1.34314 15.9981 3 15.9981H8.99566C10.6525 15.9981 11.9957 14.6549 11.9957 12.9981V3C11.9957 1.34315 10.6525 0 8.99566 0H3ZM2 3C2 2.44772 2.44772 2 3 2H8.99566C9.54795 2 9.99566 2.44771 9.99566 3V12.9981C9.99566 13.5503 9.54795 13.9981 8.99566 13.9981H3C2.44772 13.9981 2 13.5503 2 12.9981V3ZM4.74841 10.1804C4.19612 10.1804 3.74841 10.6281 3.74841 11.1804C3.74841 11.7327 4.19612 12.1804 4.74841 12.1804H7.24732C7.79961 12.1804 8.24732 11.7327 8.24732 11.1804C8.24732 10.6281 7.79961 10.1804 7.24732 10.1804H4.74841Z" fill="#60CECF"/>
</svg>
